<svg width="29" height="29" viewBox="0 0 29 29" fill="none" xmlns="http://www.w3.org/2000/svg">
<g clip-path="url(#clip0_56_6627)">
<path d="M12.2369 4.90607C11.8214 6.67981 11.7649 8.51873 12.0706 10.3146C12.3763 12.1105 13.0382 13.8272 14.0171 15.3635C14.9961 16.8999 16.2724 18.2249 17.771 19.2607C19.2697 20.2965 20.9603 21.0222 22.7435 21.3949C21.8059 22.3648 20.6831 23.1365 19.4416 23.6641C18.2001 24.1918 16.8652 24.4646 15.5162 24.4665C15.3907 24.4665 15.2641 24.4711 15.1376 24.4665C12.7892 24.3834 10.5441 23.4804 8.7922 21.9142C7.04031 20.3481 5.89231 18.2178 5.54761 15.8934C5.2029 13.5689 5.68326 11.1971 6.90525 9.18999C8.12724 7.18285 10.0137 5.66712 12.2369 4.90607ZM13.5759 2.71875C13.5228 2.71883 13.4699 2.72356 13.4176 2.73289C10.5319 3.24545 7.93791 4.80767 6.13527 7.11864C4.33263 9.42961 3.44885 12.3259 3.65417 15.2496C3.85949 18.1732 5.13939 20.9176 7.24732 22.9539C9.35526 24.9902 12.1421 26.1746 15.0712 26.2788C15.2199 26.2842 15.3686 26.2788 15.5161 26.2788C17.4181 26.2798 19.2924 25.8228 20.9806 24.9465C22.6687 24.0701 24.121 22.8002 25.2147 21.244C25.3034 21.1099 25.3552 20.9548 25.3648 20.7944C25.3744 20.6339 25.3416 20.4737 25.2696 20.33C25.1977 20.1862 25.0891 20.064 24.9548 19.9756C24.8206 19.8871 24.6654 19.8357 24.5049 19.8263C22.6944 19.6675 20.9446 19.0944 19.3909 18.1515C17.8371 17.2086 16.521 15.921 15.5443 14.3883C14.5676 12.8556 13.9564 11.1188 13.7579 9.31221C13.5595 7.5056 13.7791 5.67756 14.3998 3.96938C14.4526 3.83271 14.472 3.6854 14.4564 3.53972C14.4408 3.39404 14.3905 3.25421 14.3099 3.13186C14.2293 3.00951 14.1207 2.90819 13.993 2.83633C13.8653 2.76447 13.7223 2.72416 13.5759 2.71875Z" fill="#161616" fill-opacity="0.8"/>
</g>
<defs>
<clipPath id="clip0_56_6627">
<rect width="29" height="29" fill="white"/>
</clipPath>
</defs>
</svg>
