<svg width="29" height="29" viewBox="0 0 29 29" fill="none" xmlns="http://www.w3.org/2000/svg">
<g clip-path="url(#clip0_56_6616)">
<path d="M15.4062 1.8125H13.5938V6.3075H15.4062V1.8125Z" fill="#161616" fill-opacity="0.8"/>
<path d="M22.8327 4.87868L19.6543 8.05713L20.9359 9.33876L24.1144 6.16032L22.8327 4.87868Z" fill="#161616" fill-opacity="0.8"/>
<path d="M27.1866 13.5938H22.6917V15.4062H27.1866V13.5938Z" fill="#161616" fill-opacity="0.8"/>
<path d="M20.9413 19.6559L19.6597 20.9375L22.8381 24.1159L24.1197 22.8343L20.9413 19.6559Z" fill="#161616" fill-opacity="0.8"/>
<path d="M15.4062 22.6924H13.5938V27.1874H15.4062V22.6924Z" fill="#161616" fill-opacity="0.8"/>
<path d="M8.06907 19.6614L4.89062 22.8398L6.17226 24.1215L9.3507 20.943L8.06907 19.6614Z" fill="#161616" fill-opacity="0.8"/>
<path d="M6.3075 13.5938H1.8125V15.4062H6.3075V13.5938Z" fill="#161616" fill-opacity="0.8"/>
<path d="M6.16713 4.8839L4.8855 6.16553L8.06394 9.34397L9.34557 8.06234L6.16713 4.8839Z" fill="#161616" fill-opacity="0.8"/>
<path d="M14.5 10.875C15.217 10.875 15.9178 11.0876 16.5139 11.4859C17.1101 11.8842 17.5747 12.4504 17.8491 13.1128C18.1234 13.7752 18.1952 14.504 18.0553 15.2072C17.9155 15.9104 17.5702 16.5563 17.0633 17.0633C16.5563 17.5702 15.9104 17.9155 15.2072 18.0553C14.504 18.1952 13.7752 18.1234 13.1128 17.8491C12.4504 17.5747 11.8842 17.1101 11.4859 16.5139C11.0876 15.9178 10.875 15.217 10.875 14.5C10.875 13.5386 11.2569 12.6166 11.9367 11.9367C12.6166 11.2569 13.5386 10.875 14.5 10.875ZM14.5 9.0625C13.4246 9.0625 12.3733 9.3814 11.4791 9.97888C10.5849 10.5764 9.88796 11.4256 9.47641 12.4192C9.06486 13.4127 8.95718 14.506 9.16698 15.5608C9.37679 16.6156 9.89466 17.5844 10.6551 18.3449C11.4156 19.1053 12.3844 19.6232 13.4392 19.833C14.494 20.0428 15.5873 19.9351 16.5808 19.5236C17.5744 19.112 18.4236 18.4151 19.0211 17.5209C19.6186 16.6267 19.9375 15.5754 19.9375 14.5C19.9375 13.0579 19.3646 11.6748 18.3449 10.6551C17.3252 9.63538 15.9421 9.0625 14.5 9.0625Z" fill="#161616" fill-opacity="0.8"/>
</g>
<defs>
<clipPath id="clip0_56_6616">
<rect width="29" height="29" fill="white"/>
</clipPath>
</defs>
</svg>
